<svg xmlns="http://www.w3.org/2000/svg" version="1.1" xmlns:xlink="http://www.w3.org/1999/xlink" width="32" height="32"><svg id="SvgjsSvg1063" xmlns="http://www.w3.org/2000/svg" version="1.1" viewBox="0 0 32 32">
  <!-- Generator: Adobe Illustrator 29.8.2, SVG Export Plug-In . SVG Version: 2.1.1 Build 3)  -->
  <defs>
    <style>
      .st0 {
        fill: #1f7800;
      }
    </style>
  </defs>
  <path class="st0" d="M7.29,19.82c-.37-.29-.71-.54-1.04-.8-.35-.27-.7-.53-1.04-.81-.24-.19-.52-.33-.52-.74,0-.29-.35-.46-.62-.38-.29.08-.44.28-.43.58.01.3.31.56.6.49.21-.05.33.03.46.14.93.72,1.87,1.44,2.8,2.16.12.09.23.18.29.33.46,1.12.92,2.24,1.61,3.36-.75-.37-1.42-.7-2.09-1.03-.13-.06-.12-.17-.14-.28-.07-.31-.35-.5-.64-.43-.31.08-.5.39-.41.7.08.28.39.46.69.34.18-.07.3-.03.45.05.23.12.46.25.71.35,1.26.5,2.31,1.24,3.08,2.39.38.57.99.91,1.68,1.19-.35.15-.65.19-.95.13-1.3-.26-2.58-.6-3.8-1.15-1.94-.87-3.26-2.36-4.27-4.18-.68-1.23-.96-2.57-1.2-3.93-.24-1.39-.47-2.79-.69-4.19-.17-1.07-.57-2.04-1.19-2.93-.2-.29-.39-.58-.62-.93.62.06,1.18.11,1.75.16,1.37.13,2.76.23,4.06.72,2.95,1.12,4.94,3.21,6.03,6.16.66,1.8,1.02,3.66,1.21,5.56.06.61.09,1.23.15,1.84.03.27-.07.29-.29.22-.74-.22-1.35-.64-1.91-1.16-.63-.58-1.14-1.26-1.63-1.97-.11-.16-.12-.32-.08-.5.24-1.23.49-2.45.72-3.68.03-.16.08-.26.23-.35.29-.17.35-.53.16-.78-.16-.22-.5-.29-.74-.13-.27.17-.34.52-.12.79.11.14.13.26.1.41-.23,1.14-.45,2.28-.68,3.45-.13-.06-.16-.19-.21-.29-1.47-2.62-2.84-5.3-4.52-7.79-.09-.14-.09-.26-.05-.41.09-.31-.09-.6-.38-.66-.31-.07-.59.1-.67.4-.07.28.11.59.42.65.14.03.24.06.33.19,1.37,2,2.53,4.11,3.39,6.39.03.08.08.16.03.34Z"></path>
  <path class="st0" d="M22.56,18.24c.33-.63.67-1.25.99-1.88.07-.13.18-.11.28-.14.3-.09.48-.39.39-.67-.09-.29-.39-.46-.68-.38-.29.08-.47.39-.35.68.09.21.03.35-.07.52-.09.15-.17.31-.24.46-.55,1.11-1.13,2.18-2.18,2.95-.52.38-.88.94-1.33,1.47,0-.74,0-1.42,0-2.11,0-.13.1-.16.17-.22.25-.22.29-.57.09-.8-.2-.22-.55-.24-.78-.04-.24.22-.25.55,0,.79.11.11.15.21.14.36-.01.77-.02,1.53-.03,2.3,0,.13,0,.24-.09.35-.71.86-1.41,1.73-2.38,2.33-.25.16-.52.31-.82.36-.16.03-.27.02-.22-.2.42-1.88.74-3.82,1.7-5.5,1.26-2.21,2.94-4.04,5.62-4.57,1.93-.38,3.65.14,5.22,1.24,2.14,1.51,3.53,3.52,3.99,6.13,0,.05,0,.1.01.15-.17-.05-.26-.17-.36-.28-1.4-1.37-3.03-1.57-4.83-1.01-1.29.4-2.32,1.15-3.11,2.24-.36.5-.71,1-1.09,1.48-1.2,1.52-2.75,2.37-4.71,2.42-.59.01-1.17.01-1.8-.05.2-.33.47-.51.72-.7.94-.71,1.92-1.38,2.65-2.32.42-.53.81-1.08,1.2-1.64.12-.17.24-.28.48-.29.41,0,.83-.05,1.24-.1.17-.02.24.07.34.16.24.22.57.21.77-.02.2-.22.19-.58-.03-.78-.24-.22-.58-.21-.79.08-.12.16-.24.19-.41.2-.36.02-.71.04-1.14.07.54-.71,1.14-1.27,1.77-1.8.83-.69,1.72-1.31,2.78-1.59.77-.2,1.48.09,2.2.3.12.03.11.16.17.24.18.26.51.34.76.17.26-.17.33-.5.16-.76-.17-.25-.5-.32-.76-.14-.11.08-.2.18-.36.11-1.82-.79-3.54-.46-5.28.39Z"></path>
  <path class="st0" d="M13.61,21.31c-.29-1.92-.62-3.71-1.39-5.39-.24-.52-.51-1.03-.8-1.53-.74-1.25-.8-2.52-.1-3.82.39-.71.79-1.42.98-2.23.27-1.2.07-2.36-.25-3.52-.04-.13-.08-.26-.12-.42.89.04,1.72.21,2.49.58,2.16,1.03,3.98,2.45,5.18,4.58.67,1.19.97,2.46.83,3.83-.03.34-.16.61-.41.85-.57.55-1.19,1.04-1.74,1.61-1.25,1.28-2.16,2.75-2.6,4.5-.1.4-.22.8-.45,1.25-.12-.32,0-.52.02-.73.22-2.11.59-4.19.96-6.27.02-.11.07-.18.13-.27.59-.81,1.17-1.63,1.75-2.44.1-.14.2-.22.38-.25.31-.06.47-.35.39-.66-.08-.3-.38-.47-.67-.39-.28.08-.46.39-.37.68.03.1.12.2.03.31-.48.66-.96,1.33-1.49,2.06,0-.28,0-.47,0-.66.11-1.97-.4-3.77-1.42-5.43-.17-.27-.34-.51-.21-.89.09-.27-.12-.5-.42-.56-.3-.06-.52.08-.62.36-.1.29,0,.57.28.64.35.09.48.33.6.6.35.76.81,1.47.96,2.31.17,1-.05,1.97-.19,2.95-.08.52-.22,1.02-.35,1.6-.52-.6-.99-1.15-1.47-1.69-.09-.1-.03-.18-.02-.28.04-.35-.15-.62-.46-.66-.3-.04-.58.18-.6.48-.03.34.16.58.52.59.16,0,.25.06.34.17.47.56.94,1.11,1.42,1.65.1.11.13.21.09.37-.46,1.94-.84,3.89-1.11,5.86,0,.04-.03.09-.09.24Z"></path>
</svg><style>@media (prefers-color-scheme: light) { :root { filter: none; } }
@media (prefers-color-scheme: dark) { :root { filter: none; } }
</style></svg>